<?xml version="1.0" encoding="utf-8"?>
<!-- Generator: Adobe Illustrator 18.1.0, SVG Export Plug-In . SVG Version: 6.00 Build 0)  -->
<!DOCTYPE svg PUBLIC "-//W3C//DTD SVG 1.1//EN" "http://www.w3.org/Graphics/SVG/1.1/DTD/svg11.dtd">
<svg version="1.1" id="Layer_1" xmlns="http://www.w3.org/2000/svg" xmlns:xlink="http://www.w3.org/1999/xlink" x="0px" y="0px"
	 viewBox="0 0 200 160" enable-background="new 0 0 200 160" xml:space="preserve">
<polyline fill="#250CFF" points="6.2,129.4 99.8,31.8 193.4,129.4 "/>
<g>
	<rect x="87.9" y="104.8" fill="#00D200" width="6.5" height="6.5"/>
	<rect x="81.4" y="98.3" fill="#00D200" width="6.5" height="6.5"/>
	<polygon fill="#00D200" points="81.4,104.8 74.9,104.8 74.9,117.8 87.9,117.8 87.9,111.3 81.4,111.3 	"/>
	<rect x="94.4" y="98.3" fill="#00D200" width="6.5" height="6.5"/>
	<rect x="87.9" y="91.8" fill="#00D200" width="6.5" height="6.5"/>
	<rect x="100.9" y="91.8" fill="#00D200" width="6.5" height="6.5"/>
	<rect x="94.4" y="85.3" fill="#00D200" width="6.5" height="6.5"/>
	<polygon fill="#00D200" points="113.9,104.8 113.9,111.3 126.9,111.3 126.9,91.8 120.4,91.8 120.4,104.8 	"/>
	<rect x="113.9" y="85.3" fill="#00D200" width="6.5" height="6.5"/>
	<rect x="107.4" y="78.8" fill="#00D200" width="6.5" height="6.5"/>
	<rect x="100.9" y="72.3" fill="#00D200" width="6.5" height="6.5"/>
	<rect x="120.4" y="78.8" fill="#00D200" width="6.5" height="6.5"/>
	<rect x="107.4" y="65.8" fill="#00D200" width="6.5" height="6.5"/>
	<rect x="126.9" y="72.3" fill="#00D200" width="6.5" height="6.5"/>
	<rect x="113.9" y="59.3" fill="#00D200" width="6.5" height="6.5"/>
	<rect x="133.4" y="65.8" fill="#00D200" width="6.5" height="6.5"/>
	<rect x="120.4" y="52.8" fill="#00D200" width="6.5" height="6.5"/>
	<rect x="139.9" y="59.3" fill="#00D200" width="6.5" height="6.5"/>
	<rect x="126.9" y="46.3" fill="#00D200" width="6.5" height="6.5"/>
	<rect x="146.4" y="52.8" fill="#00D200" width="6.5" height="6.5"/>
	<rect x="133.4" y="39.8" fill="#00D200" width="6.5" height="6.5"/>
	<rect x="152.9" y="46.3" fill="#00D200" width="6.5" height="6.5"/>
	<rect x="139.9" y="33.3" fill="#00D200" width="6.5" height="6.5"/>
	<rect x="159.4" y="39.8" fill="#00D200" width="6.5" height="6.5"/>
	<rect x="146.4" y="26.8" fill="#00D200" width="6.5" height="6.5"/>
	<rect x="165.9" y="33.3" fill="#00D200" width="6.5" height="6.5"/>
	<rect x="152.9" y="20.3" fill="#00D200" width="6.5" height="6.5"/>
	<polygon fill="#00D200" points="159.4,13.8 159.3,20.3 172.3,20.3 172.3,33.3 178.8,33.3 178.8,13.8 	"/>
	<rect x="107.4" y="98.3" fill="#00D200" width="6.5" height="6.5"/>
	<rect x="87.9" y="78.8" fill="#00D200" width="6.5" height="6.5"/>
	<polygon fill="#00D200" points="100.9,72.3 100.9,65.8 81.4,65.8 81.4,78.8 87.9,78.8 87.9,72.3 	"/>
</g>
</svg>
