<?xml version="1.0" encoding="utf-8"?>
<!-- Generator: Adobe Illustrator 18.1.0, SVG Export Plug-In . SVG Version: 6.00 Build 0)  -->
<!DOCTYPE svg PUBLIC "-//W3C//DTD SVG 1.1//EN" "http://www.w3.org/Graphics/SVG/1.1/DTD/svg11.dtd">
<svg version="1.1" id="Layer_2" xmlns="http://www.w3.org/2000/svg" xmlns:xlink="http://www.w3.org/1999/xlink" x="0px" y="0px"
	 viewBox="0 0 200 160" enable-background="new 0 0 200 160" xml:space="preserve">
<g>
	<path fill="#250CFF" d="M165.5,45.2c0-2,0-3.7-0.1-5c0-0.7,0-1.2,0-1.6c0-0.2,0-0.3,0-0.4c0,0,0-0.1,0-0.1h0c0-1.2-0.1-2.4-0.3-3.9
		c-0.2-1.3-0.5-2.7-0.9-4.2c-0.4-1.3-0.9-2.7-1.6-4.2c-1.2-2.5-3-5.1-5.1-7.3c-1.6-1.7-3.5-3.2-5.4-4.3c-1.4-0.9-2.9-1.6-4.3-2.1
		c-2.1-0.8-4.1-1.3-5.8-1.6c-1.8-0.3-3.3-0.4-4.7-0.4h-72c-1.2,0-2.6,0.1-4.7,0.4c-1.5,0.3-3.4,0.7-5.6,1.6c-1.7,0.7-3.6,1.6-5.7,3
		c-1.6,1.1-3.2,2.4-4.7,4.1c-1.2,1.3-2.3,2.7-3.2,4.2c-1.4,2.3-2.6,5-3.2,7.5c-0.7,2.6-1,5.1-1,7.3c0,0.9,0,2.1,0,3.5
		c0,1.9,0,4.1,0.1,6.6c0.1,3.8,0.3,8.1,0.7,12.7c0.4,4.7,1.1,9.6,2.3,14.9l0,0c0.8,3.6,1.7,7,2.7,10.1c1.5,4.7,3.2,9.1,4.9,12.9
		c0.9,1.9,1.8,3.8,2.7,5.5c0.9,1.7,1.7,3.3,2.5,4.8l0-0.1c1.8,3.4,3.8,6.6,6,9.8c3.3,4.8,7,9.5,11,13.9c2,2.2,4.1,4.4,6.3,6.5
		c1.9,1.8,3.9,3.6,6,5.3c0.3,0.2,0.5,0.5,0.9,0.8c0.6,0.5,1.3,1,2.2,1.6c1.4,0.9,3.2,2,5.7,2.9c1.3,0.5,2.7,0.9,4.4,1.2
		c1.6,0.3,3.5,0.5,5.4,0.5c1.2,0,2.5-0.1,3.7-0.2c2.2-0.3,4.3-0.8,6-1.5c1.3-0.5,2.4-1,3.3-1.4c1.4-0.7,2.3-1.3,3.1-1.8
		c0.7-0.5,1.3-0.9,1.7-1.2l0.5-0.4l0.5-0.4c7.8-6.4,14-13.1,19-19.5c5-6.4,8.6-12.6,11.4-17.8l0-0.1l0,0c2.4-4.5,4.4-8.9,6.1-13.3
		c2.6-6.5,4.6-12.8,6-18.6c0.7-2.9,1.3-5.7,1.8-8.4c0.2-1.3,0.4-2.7,0.6-4c0.1-1.2,0.3-2.4,0.4-3.6c0.2-2.8,0.4-5.4,0.5-7.8
		C165.4,49.5,165.5,47.2,165.5,45.2z"/>
	<path fill="#250CFF" d="M53.1,109.4c0,0-0.1-0.1-0.1-0.1l0,0L53.1,109.4z"/>
</g>
<path fill="#00D200" d="M101.3,97.4c2.2-2.2,15-15,23-23c7.1-7.1,7-17.6,0.5-24c-6.5-6.5-17-6.4-23.5,0.1c-6.5-6.5-17-6.5-23.5-0.1
	c-6.5,6.5-6.6,16.9,0.5,24C86.3,82.4,99,95.1,101.3,97.4z"/>
</svg>
