<?xml version="1.0" encoding="utf-8"?>
<!-- Generator: Adobe Illustrator 18.1.0, SVG Export Plug-In . SVG Version: 6.00 Build 0)  -->
<!DOCTYPE svg PUBLIC "-//W3C//DTD SVG 1.1//EN" "http://www.w3.org/Graphics/SVG/1.1/DTD/svg11.dtd">
<svg version="1.1" id="Layer_2" xmlns="http://www.w3.org/2000/svg" xmlns:xlink="http://www.w3.org/1999/xlink" x="0px" y="0px"
	 viewBox="0 0 200 160" enable-background="new 0 0 200 160" xml:space="preserve">
<path fill="#FF68FF" d="M185.7,124.9c0,1.3-1.1,2.4-2.4,2.4h-57.7c-1.3,0-2.4-1.1-2.4-2.4V44.4c0-1.3,1.1-2.4,2.4-2.4h57.7
	c1.3,0,2.4,1.1,2.4,2.4V124.9z"/>
<g>
	<path fill="#250CFF" d="M57.3,68.6c-1.5-0.9-4-2.3-5.6-3.2L24.8,49.9c-1.5-0.9-2.8-0.1-2.8,1.6v68.6c0,1.8,1.3,2.5,2.8,1.6
		l26.9-15.5c1.5-0.9,4-2.3,5.6-3.2l26.9-15.5c1.5-0.9,1.5-2.3,0-3.3L57.3,68.6z"/>
	<path fill="#250CFF" d="M124.4,68.6c-1.5-0.9-4-2.3-5.6-3.2L91.9,49.9c-1.5-0.9-2.8-0.1-2.8,1.6v68.6c0,1.8,1.2,2.5,2.8,1.6
		l26.9-15.5c1.5-0.9,4-2.3,5.6-3.2l26.9-15.5c1.5-0.9,1.5-2.3,0-3.3L124.4,68.6z"/>
</g>
</svg>
