<?xml version="1.0" encoding="utf-8"?>
<!-- Generator: Adobe Illustrator 18.1.0, SVG Export Plug-In . SVG Version: 6.00 Build 0)  -->
<!DOCTYPE svg PUBLIC "-//W3C//DTD SVG 1.1//EN" "http://www.w3.org/Graphics/SVG/1.1/DTD/svg11.dtd">
<svg version="1.1" id="Layer_1" xmlns="http://www.w3.org/2000/svg" xmlns:xlink="http://www.w3.org/1999/xlink" x="0px" y="0px"
	 viewBox="0 0 181.2 51.5" enable-background="new 0 0 181.2 51.5" xml:space="preserve">
<path fill="#FF68FF" d="M181.2,44.1c0,4.1-3.3,7.4-7.4,7.4H7.4c-4.1,0-7.4-3.3-7.4-7.4V7.4C0,3.3,3.3,0,7.4,0h166.4
	c4.1,0,7.4,3.3,7.4,7.4V44.1z"/>
<text transform="matrix(1 0 0 1 57.9894 37.0916)" fill="#FFFFFF" font-family="'AlteHaasGrotesk_Bold'" font-size="29.6625">Donate</text>
<path fill="#250CFF" d="M35.7,37.9c1-1,6.7-6.8,10.3-10.3c3.2-3.2,3.1-7.9,0.2-10.8c-2.9-2.9-7.7-2.9-10.6,0
	c-2.9-2.9-7.6-2.9-10.6,0c-2.9,2.9-3,7.6,0.2,10.8C28.9,31.2,34.7,36.9,35.7,37.9z"/>
<path fill="#FFFFFF" d="M27.3,20.9c-0.5-0.3-1.3-0.7-1.7-1l-8.4-4.8c-0.5-0.3-0.9,0-0.9,0.5V37c0,0.6,0.4,0.8,0.9,0.5l8.4-4.8
	c0.5-0.3,1.3-0.7,1.7-1l8.4-4.8c0.5-0.3,0.5-0.7,0-1L27.3,20.9z"/>
</svg>
