<?xml version="1.0" encoding="utf-8"?>
<!-- Generator: Adobe Illustrator 18.1.0, SVG Export Plug-In . SVG Version: 6.00 Build 0)  -->
<!DOCTYPE svg PUBLIC "-//W3C//DTD SVG 1.1 Tiny//EN" "http://www.w3.org/Graphics/SVG/1.1/DTD/svg11-tiny.dtd">
<svg version="1.1" baseProfile="tiny" id="Layer_1" xmlns="http://www.w3.org/2000/svg" xmlns:xlink="http://www.w3.org/1999/xlink"
	 x="0px" y="0px" viewBox="0 0 94.6 69" xml:space="preserve">
<g>
	<path fill="#FF68FF" d="M56.9,68.7c3-3,19.8-19.8,30.3-30.4c9.4-9.4,9.2-23.2,0.7-31.7c-8.6-8.5-22.5-8.5-31,0.1
		c-8.5-8.6-22.4-8.6-31-0.1c-8.6,8.5-8.8,22.3,0.7,31.7C37.1,48.9,54,65.8,56.9,68.7z"/>
	<path fill="#FFFFFF" d="M32.2,18.9c-1.4-0.8-3.7-2.1-5.1-2.9L2.5,1.8C1.1,1,0,1.7,0,3.3v62.7c0,1.6,1.1,2.3,2.5,1.5l24.6-14.2
		c1.4-0.8,3.7-2.1,5.1-2.9l24.6-14.2c1.4-0.8,1.4-2.1,0-3L32.2,18.9z"/>
</g>
</svg>
