<?xml version="1.0" encoding="utf-8"?>
<!-- Generator: Adobe Illustrator 18.1.0, SVG Export Plug-In . SVG Version: 6.00 Build 0)  -->
<!DOCTYPE svg PUBLIC "-//W3C//DTD SVG 1.1//EN" "http://www.w3.org/Graphics/SVG/1.1/DTD/svg11.dtd">
<svg version="1.1" id="Layer_1" xmlns="http://www.w3.org/2000/svg" xmlns:xlink="http://www.w3.org/1999/xlink" x="0px" y="0px"
	 viewBox="0 0 20 18"  xml:space="preserve">
<path fill="#4254A4" d="M12,15.9c0.6-0.6,4-4,6.1-6.2C20,7.8,20,5,18.3,3.3c-1.7-1.7-4.6-1.7-6.3,0c-1.7-1.7-4.5-1.7-6.3,0
	C4,5,3.9,7.8,5.8,9.7C8,11.9,11.4,15.3,12,15.9z"/>
<path fill="#C97AB2" d="M7,5.8c-0.3-0.2-0.7-0.4-1-0.6L1,2.3c-0.3-0.2-0.5,0-0.5,0.3v12.7c0,0.3,0.2,0.5,0.5,0.3l5-2.9
	c0.3-0.2,0.7-0.4,1-0.6l5-2.9c0.3-0.2,0.3-0.4,0-0.6L7,5.8z"/>
</svg>
