<?xml version="1.0" encoding="utf-8"?>
<!-- Generator: Adobe Illustrator 18.1.0, SVG Export Plug-In . SVG Version: 6.00 Build 0)  -->
<!DOCTYPE svg PUBLIC "-//W3C//DTD SVG 1.1//EN" "http://www.w3.org/Graphics/SVG/1.1/DTD/svg11.dtd">
<svg version="1.1" id="Layer_1" xmlns="http://www.w3.org/2000/svg" xmlns:xlink="http://www.w3.org/1999/xlink" x="0px" y="0px"
	 viewBox="0 0 250 42.6" enable-background="new 0 0 250 42.6" xml:space="preserve">
<g>
	<path fill="#250CFF" d="M226.1,41.1c1.8-1.8,11.9-11.9,18.2-18.2c5.7-5.7,5.6-13.9,0.4-19.1c-5.2-5.1-13.5-5.1-18.6,0
		c-5.1-5.2-13.5-5.2-18.6,0c-5.2,5.1-5.3,13.4,0.4,19.1C214.2,29.2,224.3,39.4,226.1,41.1z"/>
	<path fill="#FF68FF" d="M211.3,11.2c-0.8-0.5-2.2-1.3-3.1-1.8l-14.8-8.5c-0.8-0.5-1.5-0.1-1.5,0.9v37.6c0,1,0.7,1.4,1.5,0.9
		l14.8-8.5c0.8-0.5,2.2-1.3,3.1-1.8l14.8-8.5c0.8-0.5,0.8-1.3,0-1.8L211.3,11.2z"/>
	<g>
		<path d="M2.4,5h3.5c0.3,0,0.6,0,0.9,0c0.3,0,0.5,0.1,0.6,0.3c0.1,0.2,0.2,0.4,0.2,0.8c0,0.3,0,0.7,0,1v3.7v12.5v2.4
			c0,0.2,0,0.4,0,0.6c0,0.2,0,0.4,0.1,0.6v0.4c0,0.2,0,0.4,0,0.6c0,0.2,0,0.3,0.1,0.5C8,28.8,8.4,29,9,29c0.6,0,1.1,0,1.7,0h8
			c0.2,0,0.5,0,0.8,0c0.3,0,0.6,0,0.9,0c0.3,0,0.6,0,0.8,0.1c0.3,0.1,0.4,0.1,0.5,0.2c0.1,0.2,0.2,0.4,0.2,0.6c0,0.2,0,0.5,0,0.8
			v1.9c0,0.2,0,0.4,0,0.6c0,0.2,0,0.4-0.1,0.5c-0.1,0.2-0.2,0.4-0.4,0.5c-0.1,0.1-0.3,0.2-0.6,0.2c-0.3,0-0.5,0-0.8,0h-2.9H6h-3
			c-0.4,0-0.7,0-1-0.1c-0.3,0-0.5-0.2-0.6-0.4c-0.1-0.2-0.2-0.4-0.2-0.6c0-0.3,0-0.5,0-0.8v-2.9V18.7V9.4V6.8c0-0.2,0-0.5,0-0.7
			c0-0.2,0.1-0.4,0.1-0.6c0.1-0.2,0.3-0.3,0.7-0.4c0.1,0,0.1,0,0.2,0C2.3,5.1,2.4,5.1,2.4,5z"/>
		<path d="M44.3,32.8c0.1,0.3,0.1,0.6,0.1,0.9c0,0.3-0.1,0.5-0.4,0.6c-0.2,0.1-0.4,0.1-0.6,0.1c-0.2,0-0.4,0-0.7,0h-2.2
			c-0.2,0-0.5,0-0.7,0c-0.2,0-0.4-0.1-0.6-0.2c-0.2-0.1-0.3-0.3-0.4-0.5c-0.1-0.2-0.2-0.4-0.4-0.5c-0.1-0.1-0.1-0.1-0.2-0.1
			c-0.1,0-0.2,0-0.3,0c-0.1,0.1-0.3,0.1-0.4,0.2c-0.1,0.1-0.3,0.2-0.4,0.2c-0.1,0.1-0.3,0.2-0.5,0.3c-0.2,0.1-0.3,0.2-0.5,0.2
			c-0.4,0.2-0.7,0.3-1.1,0.4c-0.4,0.1-0.8,0.2-1.2,0.3c-0.2,0.1-0.4,0.1-0.6,0.1c-0.2,0-0.4,0-0.6,0.1c-0.1,0-0.2,0-0.2,0
			c-0.1,0-0.2,0-0.2,0h-0.5c-0.3,0.1-0.5,0.1-0.8,0h-0.4c-0.2-0.1-0.4-0.1-0.6-0.1c-0.2,0-0.4,0-0.5-0.1c-0.3-0.1-0.5-0.1-0.8-0.1
			c-0.2,0-0.5-0.1-0.7-0.2c-0.8-0.3-1.5-0.7-2-1.2c-0.6-0.5-1-1.1-1.3-1.9c-0.1-0.2-0.2-0.4-0.2-0.6c-0.1-0.2-0.1-0.5-0.2-0.7
			c-0.1-0.1-0.1-0.3-0.1-0.4c0-0.1,0-0.3,0-0.4c0-0.1,0-0.3-0.1-0.5c0-0.3,0-0.4,0-0.6c0.1-0.3,0.1-0.5,0.1-0.7
			c0.1-0.3,0.2-0.6,0.2-0.9c0.1-0.3,0.2-0.6,0.3-0.8c0.5-0.8,1-1.4,1.6-1.8c0.6-0.4,1.4-0.8,2.3-1.1c0.4-0.1,0.7-0.2,1.1-0.3
			c0.4-0.1,0.8-0.1,1.2-0.2c0.2-0.1,0.5-0.1,0.7-0.1c0.2,0,0.5,0,0.7-0.1C32.6,22,32.8,22,33,22c0.2,0,0.4,0,0.6-0.1
			c0.2-0.1,0.4-0.1,0.6-0.1c0.2,0,0.4,0,0.6-0.1c0.6-0.1,1.1-0.3,1.6-0.4c0.5-0.1,0.9-0.3,1.3-0.7c0.2-0.2,0.4-0.5,0.5-0.8
			c0-0.1,0-0.2,0-0.2c0-0.1,0-0.1,0-0.2c0-0.1,0-0.1,0-0.2c0-0.1,0-0.2,0-0.2c0-0.1-0.1-0.2-0.1-0.3c0-0.1,0-0.2-0.1-0.3
			c-0.3-0.8-0.8-1.4-1.7-1.7c-0.2-0.1-0.5-0.1-0.9-0.2c-0.3,0-0.7-0.1-1.1,0c-0.4,0-0.7,0-1,0.1c-0.3,0.1-0.6,0.1-0.9,0.2
			c-0.2,0.1-0.3,0.1-0.5,0.2c-0.2,0.1-0.3,0.2-0.4,0.3c-0.1,0.1-0.3,0.3-0.4,0.5C31.1,18,31,18.1,31,18.3c-0.1,0.3-0.3,0.5-0.3,0.8
			c-0.1,0.2-0.3,0.4-0.6,0.5c-0.2,0.1-0.5,0.1-0.7,0.1c-0.2,0-0.5,0-0.7,0H27c-0.1,0-0.3,0-0.4,0c-0.1,0-0.3,0-0.4,0h-0.4
			c-0.1,0-0.1,0-0.2,0c-0.1,0-0.2,0-0.2-0.1c-0.2-0.1-0.4-0.2-0.5-0.5c0-0.1,0-0.3,0-0.4c0-0.1,0.1-0.3,0.1-0.4
			c0.1-0.3,0.2-0.6,0.3-0.8c0.1-0.3,0.2-0.5,0.3-0.7c0.1-0.1,0.2-0.3,0.2-0.4c0.1-0.1,0.2-0.3,0.2-0.4c0.2-0.3,0.5-0.6,0.8-0.9
			c0.1,0,0.1-0.1,0.2-0.2c0.1-0.1,0.3-0.2,0.4-0.3c0.1-0.1,0.2-0.2,0.4-0.2c0.5-0.3,1-0.5,1.5-0.7c0.5-0.2,1.1-0.4,1.6-0.5
			c0.3-0.1,0.7-0.1,1-0.2c0.4,0,0.7-0.1,1.1-0.2c0.1,0,0.3,0,0.5,0c0.2,0,0.4,0,0.4,0c1.1,0,2.2,0,3.2,0.1c1,0.1,2,0.3,2.8,0.6
			c0.8,0.3,1.6,0.7,2.2,1.2c0.6,0.5,1.1,1.2,1.4,2c0.2,0.5,0.3,1,0.3,1.6c0,0.6,0,1.2,0,1.9v9.2c0,0.5,0,1,0,1.6
			c0,0.5,0.1,1,0.2,1.5c0,0.1,0,0.2,0,0.3C44.3,32.6,44.3,32.7,44.3,32.8z M38.3,26.4c0-0.1,0-0.3,0-0.5c0-0.2,0-0.3,0-0.5
			c-0.1-0.2-0.1-0.3-0.1-0.5c0-0.1-0.1-0.2-0.2-0.3c-0.1-0.1-0.3-0.2-0.6-0.2c-0.1,0-0.2,0-0.3,0.1c-0.1,0-0.2,0-0.3,0.1
			c-0.2,0.1-0.4,0.1-0.6,0.1c-0.2,0-0.4,0.1-0.7,0.1c-0.1,0-0.2,0-0.4,0c-0.4,0.1-0.7,0.1-1.1,0.2c-0.4,0-0.7,0.1-1,0.2
			c-0.2,0.1-0.4,0.1-0.6,0.1c-0.2,0-0.4,0.1-0.6,0.2c-0.6,0.2-1.1,0.6-1.5,1.1c-0.4,0.5-0.5,1.2-0.4,2.1c0.1,0.5,0.2,0.9,0.5,1.2
			c0.2,0.3,0.5,0.5,0.9,0.7c0.4,0.2,0.8,0.3,1.3,0.4c0.5,0.1,0.9,0.1,1.4,0.1c0.5,0,1-0.1,1.4-0.3c0.7-0.2,1.3-0.6,1.7-1
			c0.4-0.5,0.7-1.1,0.9-1.8c0.1-0.2,0.1-0.4,0.1-0.6c0-0.2,0-0.4,0.1-0.6V26.4z"/>
		<path d="M60.8,12.6c0.3,0,0.6,0,0.8,0.1c0.2,0.1,0.4,0.2,0.6,0.4c0.2,0.2,0.2,0.6,0.2,1.1c0,0.5,0,1,0,1.4c0,0.3,0,0.6,0,1
			c0,0.4,0,0.7-0.1,0.9c-0.1,0.2-0.3,0.3-0.5,0.4C61.6,18,61.3,18,61.1,18c-0.3,0-0.5,0-0.8,0c-0.3,0-0.6,0-0.8,0
			c-0.2,0.1-0.4,0.1-0.6,0.1c-0.2,0-0.4,0-0.5,0.1c-0.4,0.1-0.9,0.3-1.3,0.6c-0.4,0.3-0.8,0.6-1,0.9c-0.1,0.2-0.3,0.4-0.4,0.7
			c-0.2,0.2-0.3,0.5-0.4,0.7c-0.1,0.2-0.2,0.4-0.2,0.7c-0.1,0.2-0.1,0.5-0.2,0.7c-0.1,0.2-0.1,0.4-0.1,0.6c0,0.2,0,0.4-0.1,0.6
			c0,0.1,0,0.2,0,0.3c0,0.1,0,0.2,0,0.3v0.7c-0.1,0.2-0.1,0.4,0,0.6c0,0.2,0,0.5,0,0.7v2.6v3.5c0,0.4,0,0.7,0,1
			c0,0.3-0.1,0.6-0.2,0.7c-0.1,0.1-0.1,0.1-0.3,0.2c-0.1,0-0.3,0.1-0.4,0.1h-0.2c-0.1,0-0.3,0-0.5,0c-0.2,0-0.3,0-0.5,0h-1.8
			c-0.2,0-0.3,0-0.5,0c-0.2,0-0.4,0-0.6,0c-0.1-0.1-0.3-0.1-0.4-0.1c-0.1,0-0.2-0.1-0.3-0.3c-0.1-0.1-0.2-0.3-0.2-0.6
			c0-0.3,0-0.5,0-0.8v-2.8V18.1v-3c0-0.3,0-0.5,0-0.8c0-0.3,0.1-0.5,0.2-0.6c0.1-0.2,0.3-0.4,0.6-0.4c0.3-0.1,0.6-0.1,1-0.1h2.1
			c0.3,0,0.6,0,0.9,0.1c0.2,0,0.4,0.2,0.6,0.4c0.1,0.1,0.1,0.3,0.1,0.6c0,0.2,0,0.5,0.1,0.7c0,0.2,0.1,0.4,0.1,0.6
			c0.1,0.2,0.2,0.3,0.4,0.3c0.1-0.1,0.1-0.1,0.2-0.1c0.1,0,0.1,0,0.2-0.1c0.2-0.1,0.3-0.3,0.4-0.5c0.1-0.2,0.3-0.3,0.5-0.5
			c0.1-0.1,0.2-0.2,0.3-0.3c0.1-0.1,0.2-0.2,0.3-0.3c0.2-0.2,0.5-0.3,0.8-0.5c0.3-0.2,0.5-0.3,0.8-0.5c0.3-0.1,0.6-0.2,0.8-0.3
			c0.3-0.1,0.6-0.2,0.9-0.2c0.1,0,0.2,0,0.5,0C60.6,12.7,60.7,12.7,60.8,12.6z"/>
		<path d="M86.3,23.5c0,0.2,0,0.4,0,0.7c0,0.3,0,0.6-0.1,0.7v0.5c-0.1,0.3-0.1,0.6-0.1,0.9c0,0.3-0.1,0.6-0.1,0.8
			c-0.1,0.2-0.1,0.5-0.2,0.8c-0.1,0.3-0.1,0.5-0.2,0.8c-0.2,0.5-0.4,0.9-0.6,1.3c-0.2,0.4-0.4,0.8-0.7,1.2c-0.2,0.2-0.3,0.5-0.5,0.7
			c-0.2,0.2-0.4,0.4-0.6,0.6l-0.3,0.3c-0.1,0.1-0.3,0.3-0.4,0.4c-0.2,0.1-0.3,0.2-0.4,0.3c-0.2,0.2-0.5,0.3-0.7,0.4
			c-0.3,0.1-0.5,0.3-0.8,0.4c-0.3,0.1-0.6,0.2-0.8,0.3c-0.3,0.1-0.6,0.1-0.9,0.2c-0.2,0.1-0.3,0.1-0.5,0.1c-0.2,0-0.4,0-0.6,0.1
			h-0.4c-0.2,0.1-0.4,0.1-0.6,0h-0.4c-0.2-0.1-0.3-0.1-0.5-0.1c-0.2,0-0.3,0-0.5-0.1c-0.4-0.1-0.9-0.3-1.3-0.4
			c-0.4-0.1-0.8-0.3-1.1-0.5c-0.2-0.1-0.4-0.2-0.5-0.3c-0.2-0.1-0.3-0.3-0.5-0.4c-0.1-0.1-0.3-0.2-0.5-0.4c-0.2-0.2-0.4-0.2-0.6,0
			c-0.1,0.1-0.2,0.2-0.2,0.3c0,0.1,0,0.3-0.1,0.4c-0.1,0.3-0.1,0.6-0.1,0.9c0,0.4,0,0.7,0,1v4.2c0,0.4,0,0.7,0,1
			c0,0.3-0.1,0.6-0.2,0.8c-0.1,0.1-0.2,0.2-0.5,0.2c-0.2,0.1-0.5,0.1-0.7,0.1c-0.3,0-0.5,0-0.8,0c-0.3,0-0.5,0-0.7,0h-1.1
			c-0.1,0-0.2,0-0.3,0c-0.1,0-0.2,0-0.3,0h-0.3c-0.5-0.1-0.7-0.4-0.7-0.8c0-0.4,0-0.9,0-1.4V15.5c0-0.3,0-0.6,0-1
			c0-0.3,0-0.6,0.2-0.8c0.1-0.2,0.3-0.3,0.5-0.4c0.1-0.1,0.3-0.1,0.5-0.1c0.2,0,0.4,0,0.6,0h2c0.3,0,0.5,0,0.8,0
			c0.2,0,0.5,0.1,0.6,0.2c0.2,0.1,0.3,0.3,0.3,0.5c0,0.2,0.1,0.4,0.2,0.6c0,0.1,0.1,0.1,0.1,0.2c0,0,0.1,0.1,0.1,0.1
			c0.3,0,0.5-0.1,0.7-0.2c0.2-0.2,0.4-0.4,0.6-0.5c0.4-0.2,0.7-0.5,1.1-0.7c0.4-0.2,0.8-0.4,1.3-0.5c0.2-0.1,0.5-0.1,0.7-0.2
			c0.3,0,0.5-0.1,0.8-0.1c0.1,0,0.2,0,0.4,0c0.1,0,0.2,0,0.3,0c1.6-0.1,2.9,0.2,4,0.6c1.1,0.5,2,1.1,2.8,1.9
			c0.1,0.1,0.3,0.3,0.4,0.4c0.1,0.1,0.2,0.3,0.3,0.4c0.2,0.2,0.4,0.5,0.5,0.7c0.1,0.2,0.3,0.5,0.4,0.7c0.1,0.1,0.1,0.1,0.1,0.2
			c0,0.1,0,0.2,0.1,0.3c0.2,0.3,0.3,0.6,0.5,1c0.1,0.2,0.1,0.3,0.2,0.5c0.1,0.2,0.1,0.4,0.2,0.6c0.1,0.3,0.2,0.7,0.2,1
			c0,0.4,0.1,0.7,0.2,1.1c0,0.1,0,0.3,0,0.5c0,0.2,0,0.3,0.1,0.5V23.5z M80.5,24.5c0-0.1,0-0.3,0-0.6c0-0.2,0-0.4,0-0.6V23
			c-0.1-0.2-0.1-0.3-0.1-0.5c0-0.2,0-0.4-0.1-0.6c-0.1-0.3-0.1-0.5-0.2-0.8c-0.1-0.3-0.1-0.5-0.2-0.7c-0.3-0.9-0.8-1.6-1.3-2.1
			c-0.5-0.5-1.3-0.9-2.2-1.2C76.2,17.1,76,17,75.7,17c-0.3,0-0.5,0-0.8,0c-0.1,0-0.2,0-0.3,0c-0.1,0-0.2,0-0.3,0
			c-0.2,0.1-0.4,0.1-0.6,0.1c-0.2,0-0.4,0.1-0.5,0.2c-0.7,0.3-1.3,0.8-1.7,1.4c-0.4,0.6-0.7,1.3-1,2.1c-0.1,0.2-0.1,0.4-0.1,0.7
			c0,0.2-0.1,0.5-0.1,0.7c0,0.1,0,0.3,0,0.5c-0.1,0.1-0.1,0.2,0,0.4c0,0.2,0,0.3,0,0.4c-0.1,0.2-0.1,0.3,0,0.5v0.5
			c0,0.1,0,0.3,0,0.4c0,0.1,0,0.2,0.1,0.3c0,0.2,0,0.3,0,0.5c0,0.2,0.1,0.3,0.1,0.5c0,0.2,0.1,0.3,0.1,0.5c0.2,0.8,0.5,1.4,0.9,2
			c0.3,0.5,0.8,1,1.5,1.3c0.4,0.2,0.8,0.4,1.4,0.5c0.1,0,0.2,0,0.3,0c0.1,0,0.2,0,0.3,0c0.1,0,0.3,0,0.5,0.1c0.2,0,0.4,0,0.5,0
			c0.2-0.1,0.4-0.1,0.7-0.1c0.2,0,0.5-0.1,0.7-0.2c0.7-0.3,1.2-0.7,1.6-1.2c0.4-0.5,0.8-1.1,1-1.7c0.1-0.3,0.2-0.7,0.3-1
			c0.1-0.4,0.1-0.7,0.2-1.1c0-0.1,0-0.3,0-0.4C80.5,24.8,80.5,24.6,80.5,24.5z"/>
		<path d="M98,5c0.2,0,0.5,0,0.8,0c0.3,0,0.6,0,0.9,0c0.3,0,0.6,0.1,0.8,0.1c0.2,0.1,0.4,0.2,0.5,0.3c0.2,0.2,0.2,0.5,0.2,0.9
			c0,0.4,0,0.8,0,1.1c0,0.3,0,0.5,0,0.8c0,0.3-0.1,0.5-0.2,0.6c-0.1,0.2-0.2,0.3-0.4,0.3c-0.2,0-0.4,0.1-0.6,0.1c-0.2,0-0.4,0-0.6,0
			c-0.2,0-0.4,0-0.6,0c-0.5,0.1-0.9,0.2-1.2,0.4c-0.3,0.2-0.5,0.5-0.7,0.9c-0.1,0.1-0.1,0.2-0.1,0.2c0,0.1,0,0.1,0,0.2
			c0,0.1-0.1,0.3-0.1,0.5c0,0.2,0,0.4,0,0.5c0.1,0.2,0.1,0.4,0.2,0.5c0.1,0.1,0.2,0.2,0.4,0.3c0.3,0.1,0.6,0.2,1,0.1
			c0.4-0.1,0.7-0.1,1.1,0c0.1,0,0.3,0,0.4,0c0.1,0,0.2,0,0.3,0c0.2,0.1,0.4,0.2,0.5,0.4c0.1,0.1,0.1,0.2,0.1,0.4
			c0,0.2,0.1,0.4,0.1,0.6c0,0.2,0,0.4,0,0.6c0,0.2,0,0.4-0.1,0.5c0,0.1,0,0.2,0,0.3c0,0.1,0,0.2,0,0.3c-0.1,0.3-0.2,0.5-0.5,0.6
			C100.2,17,100,17,99.7,17c-0.3,0-0.6,0-0.9,0c-0.1,0-0.2,0-0.3,0c-0.1,0-0.2,0-0.3,0h-0.3c-0.5,0.1-0.8,0.4-0.9,0.9
			c-0.1,0.2-0.1,0.4,0,0.6c0,0.2,0,0.4,0,0.7v2.5v8v1.9c0,0.2,0,0.3,0,0.5c0,0.2,0,0.3-0.1,0.5v0.5c0,0.4-0.1,0.8-0.2,0.9
			c-0.1,0.1-0.2,0.1-0.3,0.2c-0.1,0-0.3,0.1-0.4,0.1h-0.2c-0.1,0-0.3,0-0.5,0c-0.2,0-0.3,0-0.5,0h-1.8c-0.2,0-0.4,0-0.6,0
			c-0.2,0-0.4,0-0.5-0.1c-0.3-0.1-0.5-0.2-0.7-0.4c-0.1-0.1-0.1-0.3-0.1-0.5c0-0.2,0-0.4,0-0.7v-2.1V19c0-0.5,0-0.9-0.1-1.2
			c-0.1-0.3-0.2-0.6-0.6-0.7c-0.3-0.1-0.7-0.2-1.1-0.1c-0.4,0.1-0.8,0-1.1-0.1c-0.3-0.1-0.5-0.4-0.6-0.7c-0.1-0.1-0.1-0.3-0.1-0.5
			c0-0.2,0-0.4,0-0.6c0-0.5,0-0.9,0.1-1.2c0.1-0.3,0.3-0.6,0.7-0.7c0.2-0.1,0.5-0.1,0.7-0.1c0.2,0,0.5,0,0.7,0c0.2,0,0.4,0,0.6-0.1
			c0.2,0,0.3-0.1,0.5-0.3c0.2-0.3,0.3-0.6,0.2-1.1c0-0.4,0-0.8,0.1-1.2c0-0.1,0-0.2,0.1-0.3c0-0.1,0-0.2,0.1-0.4
			c0.1-0.4,0.2-0.7,0.3-1.1c0.1-0.3,0.3-0.6,0.5-0.9c0.4-0.7,0.9-1.2,1.5-1.6c0.6-0.4,1.3-0.7,2.1-0.9c0.2-0.1,0.5-0.1,0.7-0.1
			c0.2,0,0.5,0,0.7-0.1c0.1,0,0.2,0,0.4,0C97.8,5.1,97.9,5.1,98,5z"/>
		<path d="M104.7,13.2h3.1c0.3,0,0.6,0,0.8,0c0.2,0,0.4,0.1,0.5,0.3c0.1,0.2,0.2,0.4,0.2,0.7c0,0.3,0,0.6,0,0.9V18v6.1
			c0,1,0,1.9,0.1,2.8c0.1,0.9,0.3,1.6,0.7,2.2c0.4,0.6,1,1,1.9,1.2c0.1,0,0.3,0,0.4,0c0.1,0,0.2,0,0.3,0c0.1,0,0.3,0,0.5,0
			c0.2,0,0.3,0,0.4,0c0.1-0.1,0.3-0.1,0.3,0c0.1,0,0.2,0,0.3,0c0.6-0.1,1-0.3,1.4-0.5c0.5-0.3,0.9-0.7,1.2-1.2
			c0.3-0.5,0.5-1,0.6-1.6c0.1-0.6,0.2-1.2,0.2-2c0-0.7,0-1.5,0-2.3v-5v-2.7c0-0.2,0-0.5,0-0.8c0-0.3,0.1-0.5,0.2-0.6
			c0.1-0.2,0.3-0.4,0.6-0.4c0.3,0,0.6-0.1,1-0.1h2.2c0.3,0,0.5,0,0.8,0c0.2,0,0.5,0.1,0.6,0.2c0.2,0.1,0.3,0.3,0.4,0.6
			c0,0.3,0,0.6,0,0.9v3.1v11.6v2.9c0,0.3,0,0.6,0,0.8c0,0.3-0.1,0.5-0.2,0.6c-0.1,0.2-0.3,0.3-0.6,0.4c-0.3,0-0.6,0-0.9,0h-2.2
			c-0.3,0-0.6,0-0.8,0c-0.2,0-0.4-0.1-0.6-0.3c-0.1-0.1-0.1-0.2-0.1-0.4c0-0.2-0.1-0.3-0.1-0.5c0-0.2-0.1-0.3-0.1-0.5
			c-0.1-0.1-0.1-0.2-0.2-0.2c-0.1-0.1-0.1-0.1-0.2,0c-0.1,0-0.2,0.1-0.2,0.1c-0.2,0.1-0.4,0.2-0.5,0.4c-0.1,0.1-0.3,0.3-0.5,0.4
			c-0.1,0.1-0.2,0.2-0.3,0.3c-0.1,0.1-0.2,0.2-0.4,0.3c-0.6,0.4-1.4,0.7-2.2,0.9c-0.2,0.1-0.4,0.1-0.6,0.1c-0.2,0-0.4,0-0.6,0.1
			c-0.1,0-0.2,0-0.4,0c-0.1,0-0.2,0-0.4,0c-0.1,0-0.3,0-0.5,0c-0.3,0-0.4,0-0.5-0.1c-0.1,0-0.3,0-0.4,0c-0.1,0-0.3,0-0.4,0
			c-0.3-0.1-0.6-0.2-0.9-0.2c-0.3-0.1-0.6-0.1-0.9-0.2c-0.1-0.1-0.3-0.1-0.4-0.1c-0.1,0-0.2-0.1-0.4-0.1c-1-0.5-1.7-1.2-2.3-2.2
			c-0.4-0.6-0.6-1.3-0.8-2.1c-0.2-0.8-0.3-1.7-0.3-2.6c0-0.9-0.1-1.9,0-2.8c0-1,0-1.9,0-2.9v-5.6c0-0.4,0-0.8,0-1.3
			c0-0.5,0-0.8,0.2-1.1c0.1-0.1,0.2-0.3,0.5-0.4C104.5,13.2,104.6,13.2,104.7,13.2z"/>
		<path d="M140.1,12.6c1.6-0.1,3,0.2,4.1,0.7c1.1,0.5,2,1.3,2.6,2.3c0.2,0.3,0.3,0.6,0.5,1c0.1,0.3,0.2,0.7,0.3,1
			c0.1,0.2,0.1,0.4,0.1,0.6c0,0.2,0,0.4,0.1,0.6c0,0.2,0,0.3,0,0.3c0.1,0.4,0.1,0.8,0.1,1.2c0,0.4,0,0.8,0,1.2v3.7v6.7
			c0,0.5,0,1,0,1.5c0,0.5-0.2,0.8-0.6,0.9c-0.2,0.1-0.4,0.1-0.6,0.1c-0.2,0-0.4,0-0.7,0h-2.2c-0.3,0-0.6,0-0.9-0.1
			c-0.3,0-0.5-0.2-0.6-0.3c-0.1-0.2-0.2-0.4-0.2-0.6c0-0.3,0-0.5,0-0.8v-2.9v-6.1c0-1,0-2-0.1-2.8c-0.1-0.9-0.3-1.6-0.7-2.2
			c-0.4-0.5-0.9-0.9-1.7-1.2c-0.1-0.1-0.3-0.1-0.4-0.1c-0.2,0-0.3,0-0.5-0.1c-0.1,0-0.3,0-0.5,0c-0.2,0-0.4,0-0.5,0.1
			c-0.1,0-0.2,0-0.3,0c-0.1,0-0.2,0-0.2,0c-0.6,0.2-1.1,0.4-1.5,0.7c-0.9,0.6-1.4,1.6-1.6,2.8c-0.2,1.2-0.2,2.6-0.2,4.1v5.1v2.5
			c0,0.2,0,0.5,0,0.7c0,0.2,0,0.5-0.1,0.6c-0.1,0.3-0.4,0.5-0.7,0.5c-0.3,0.1-0.7,0.1-1.1,0.1h-2.1c-0.3,0-0.6,0-0.9,0
			c-0.3,0-0.5-0.1-0.7-0.3c-0.2-0.2-0.3-0.6-0.3-1.1c0-0.5,0-0.9,0-1.3v-5.6V17v-2.1c0-0.3,0-0.6,0-0.8c0-0.2,0.1-0.5,0.2-0.6
			c0.1-0.1,0.1-0.1,0.3-0.2c0.1,0,0.3-0.1,0.4-0.1h0.2c0.1,0,0.3,0,0.4,0c0.2,0,0.3,0,0.4,0h1.7c0.2,0,0.4,0,0.6,0
			c0.2,0,0.4,0,0.6,0.1c0.2,0.1,0.3,0.2,0.4,0.4c0.1,0.2,0.1,0.4,0.2,0.6c0,0.1,0,0.2,0,0.3c0,0.1,0,0.2,0.1,0.2
			c0.1,0.1,0.1,0.2,0.1,0.2c0,0,0.1,0.1,0.2,0.1c0.3,0,0.5-0.1,0.7-0.3c0.2-0.2,0.4-0.4,0.6-0.6c0.7-0.5,1.6-1,2.5-1.3
			c0.2-0.1,0.5-0.1,0.8-0.2c0.3,0,0.5-0.1,0.8-0.1c0.1,0,0.2,0,0.4,0C139.9,12.7,140,12.7,140.1,12.6z"/>
		<path d="M173.2,32.1c0,0.4,0,0.8,0,1.1c0,0.4-0.1,0.7-0.2,0.9c-0.1,0.1-0.3,0.2-0.5,0.3c-0.2,0-0.5,0.1-0.7,0.1h-2.3
			c-0.3,0-0.5,0-0.8,0c-0.2,0-0.4-0.1-0.6-0.2c-0.2-0.1-0.3-0.3-0.3-0.5c0-0.2-0.1-0.4-0.2-0.7c-0.1-0.1-0.1-0.1-0.1-0.1
			c0,0-0.1-0.1-0.1-0.1c-0.3,0-0.5,0.1-0.7,0.2c-0.1,0.1-0.3,0.3-0.4,0.4c-0.2,0.1-0.4,0.3-0.5,0.4c-0.2,0.1-0.3,0.2-0.5,0.4
			c-0.1,0.1-0.2,0.1-0.4,0.2c-0.1,0.1-0.3,0.1-0.4,0.2c-0.4,0.1-0.8,0.3-1.2,0.4c-0.1,0.1-0.3,0.1-0.4,0.1c-0.1,0-0.2,0-0.3,0
			c-0.1,0-0.3,0-0.4,0c-0.1,0-0.2,0-0.4,0h-0.4c-0.2,0.1-0.4,0.1-0.7,0.1c-0.3,0-0.6,0-0.7-0.1c-0.2-0.1-0.4-0.1-0.5-0.1
			c-0.2,0-0.3,0-0.5-0.1c-0.3-0.1-0.7-0.2-1-0.3c-0.3-0.1-0.6-0.2-0.9-0.3c-1-0.4-1.8-1.1-2.6-1.9c-0.8-0.9-1.4-1.8-1.8-2.7
			c-0.1-0.3-0.2-0.6-0.3-0.9c-0.1-0.3-0.2-0.6-0.3-0.9c0-0.1,0-0.2,0-0.3c0-0.1,0-0.2-0.1-0.4c-0.1-0.2-0.1-0.5-0.1-0.7
			c0-0.3-0.1-0.5-0.1-0.8c0-0.1,0-0.2,0-0.3c0-0.1,0-0.2,0-0.3c0-0.1,0-0.3,0-0.4c0-0.1,0-0.3,0-0.4c0-0.1,0-0.3,0-0.5
			c0-0.2,0-0.3,0-0.4c0-0.1,0-0.3,0-0.4c0-0.1,0-0.3,0-0.4c0-0.1,0-0.3,0-0.4c0-0.1,0-0.3,0.1-0.4c0.1-0.3,0.1-0.6,0.1-0.9
			c0-0.3,0.1-0.5,0.2-0.8c0.1-0.3,0.2-0.6,0.3-0.9c0.1-0.3,0.2-0.6,0.3-0.9c0.4-0.8,0.9-1.6,1.4-2.3c0.1-0.1,0.1-0.2,0.2-0.2
			c0.1-0.1,0.2-0.1,0.2-0.2c0.1-0.1,0.2-0.3,0.3-0.4c0.1-0.1,0.2-0.2,0.4-0.3c0.1-0.1,0.2-0.1,0.3-0.2c0.1-0.1,0.2-0.2,0.3-0.2
			c0.7-0.5,1.5-0.9,2.4-1.2c0.2-0.1,0.4-0.1,0.6-0.1c0.2,0,0.4-0.1,0.6-0.1c0.2-0.1,0.4-0.1,0.7-0.1c0.3,0,0.6,0,0.9,0
			c0.3,0,0.6,0,0.9,0c0.3,0,0.5,0.1,0.7,0.1c0.4,0.1,0.8,0.3,1.2,0.4c0.4,0.1,0.7,0.3,1.1,0.5c0.2,0.1,0.4,0.3,0.5,0.4
			c0.2,0.1,0.3,0.3,0.5,0.4c0.1,0.1,0.3,0.2,0.5,0.3c0.2,0.1,0.4,0.1,0.6,0c0.1-0.1,0.2-0.2,0.2-0.3c0-0.1,0-0.3,0.1-0.4v-0.4
			c0-0.1,0-0.2,0-0.3c0-0.1,0-0.2,0-0.3V7.4c0-0.3,0-0.6,0-1c0-0.4,0-0.7,0.2-0.8c0.1-0.2,0.3-0.4,0.6-0.4c0.1,0,0.1,0,0.2,0
			c0.1,0,0.1,0,0.2,0h2.9c0.3,0,0.6,0,0.9,0c0.3,0,0.5,0.1,0.6,0.3c0.1,0.2,0.2,0.5,0.2,0.8c0,0.3,0,0.7,0,1V32.1z M167.6,24
			c0-0.1,0-0.2,0-0.3c0-0.1,0-0.2,0-0.4c0-0.3,0-0.5,0-0.8c0-0.3-0.1-0.5-0.1-0.7c-0.1-0.3-0.1-0.6-0.1-0.8c0-0.2-0.1-0.5-0.2-0.7
			c-0.4-1-0.9-1.8-1.7-2.3c-0.7-0.6-1.8-0.9-3.2-0.9c-0.2,0-0.4,0-0.7,0.1c-0.2,0.1-0.4,0.1-0.6,0.1c-0.2,0-0.3,0.1-0.5,0.2
			c-0.7,0.3-1.3,0.8-1.7,1.4c-0.4,0.6-0.7,1.3-1,2.1c-0.1,0.3-0.1,0.6-0.2,0.8c0,0.3-0.1,0.6-0.2,0.9v0.6c-0.1,0.2-0.1,0.6,0,1
			c0,0.4,0.1,0.7,0.1,0.9c0,0.1,0,0.2,0,0.2c0,0.1,0,0.1,0,0.2c0.1,0.2,0.1,0.4,0.1,0.6c0,0.2,0.1,0.4,0.1,0.6
			c0.5,1.4,1.3,2.5,2.4,3.2c0.4,0.2,0.8,0.4,1.5,0.6c0.1,0,0.3,0,0.5,0c0.1,0,0.2,0,0.4,0.1c0.2,0,0.3,0,0.4,0
			c0.2-0.1,0.4-0.1,0.7-0.1c0.2,0,0.4-0.1,0.7-0.2c0.7-0.3,1.2-0.7,1.6-1.2c0.4-0.5,0.8-1.1,1.1-1.8c0.1-0.2,0.2-0.5,0.2-0.8
			c0.1-0.3,0.1-0.5,0.2-0.8c0-0.1,0-0.3,0-0.4c0-0.1,0-0.3,0.1-0.4c0-0.1,0-0.2,0-0.3c0-0.1,0-0.2,0-0.4V24z"/>
	</g>
</g>
</svg>
